name rise49.5252peak65.1548fall88.8305.mot
datacolumns 19
datarows 27
range 6.248306 6.291644
endheader
time	ground_force1_vx	ground_force1_vy	ground_force1_vz	ground_force1_px	ground_force1_py	ground_force1_pz	ground_force2_vx	ground_force2_vy	ground_force2_vz	ground_force2_px	ground_force2_py	ground_force2_pz	ground_torque1_x	ground_torque1_y	ground_torque1_z	ground_torque2_x	ground_torque2_y	ground_torque2_z	
6.248306	0.000000	0.000000	0.000000	0.000000	0.000000	0.000000	37.097347	743.640156	-51.754722	0.318817	0.000000	-0.088086	0.000000	0.000000	0.000000	0.000000	-25.437927	0.000000	
6.249974	0.000000	0.000000	0.000000	0.000000	0.000000	0.000000	36.634081	741.722558	-51.533447	0.317364	0.000000	-0.088071	0.000000	0.000000	0.000000	0.000000	-25.289312	0.000000	
6.251637	0.000000	0.000000	0.000000	0.000000	0.000000	0.000000	36.169767	739.814321	-51.311385	0.315896	0.000000	-0.088057	0.000000	0.000000	0.000000	0.000000	-25.140495	0.000000	
6.253302	0.000000	0.000000	0.000000	0.000000	0.000000	0.000000	35.704582	737.917942	-51.088756	0.314414	0.000000	-0.088045	0.000000	0.000000	0.000000	0.000000	-24.991710	0.000000	
6.254967	0.000000	0.000000	0.000000	0.000000	0.000000	0.000000	35.238700	736.035806	-50.865765	0.312920	0.000000	-0.088034	0.000000	0.000000	0.000000	0.000000	-24.843187	0.000000	
6.256642	0.000000	0.000000	0.000000	0.000000	0.000000	0.000000	34.772287	734.170183	-50.642601	0.311418	0.000000	-0.088024	0.000000	0.000000	0.000000	0.000000	-24.695143	0.000000	
6.258304	0.000000	0.000000	0.000000	0.000000	0.000000	0.000000	34.305500	732.323231	-50.419440	0.309908	0.000000	-0.088015	0.000000	0.000000	0.000000	0.000000	-24.547790	0.000000	
6.259971	0.000000	0.000000	0.000000	0.000000	0.000000	0.000000	33.838490	730.496994	-50.196440	0.308394	0.000000	-0.088008	0.000000	0.000000	0.000000	0.000000	-24.401327	0.000000	
6.261637	0.000000	0.000000	0.000000	0.000000	0.000000	0.000000	33.371396	728.693410	-49.973744	0.306877	0.000000	-0.088001	0.000000	0.000000	0.000000	0.000000	-24.255946	0.000000	
6.263303	0.000000	0.000000	0.000000	0.000000	0.000000	0.000000	32.904346	726.914307	-49.751482	0.305360	0.000000	-0.087994	0.000000	0.000000	0.000000	0.000000	-24.111826	0.000000	
6.264978	0.000000	0.000000	0.000000	0.000000	0.000000	0.000000	32.437460	725.161410	-49.529769	0.303846	0.000000	-0.087988	0.000000	0.000000	0.000000	0.000000	-23.969139	0.000000	
6.266640	0.000000	0.000000	0.000000	0.000000	0.000000	0.000000	31.970842	723.436341	-49.308704	0.302335	0.000000	-0.087983	0.000000	0.000000	0.000000	0.000000	-23.828046	0.000000	
6.268306	0.000000	0.000000	0.000000	0.000000	0.000000	0.000000	31.504587	721.740625	-49.088376	0.300832	0.000000	-0.087977	0.000000	0.000000	0.000000	0.000000	-23.688696	0.000000	
6.269968	0.000000	0.000000	0.000000	0.000000	0.000000	0.000000	31.038776	720.075691	-48.868860	0.299337	0.000000	-0.087972	0.000000	0.000000	0.000000	0.000000	-23.551231	0.000000	
6.271641	0.000000	0.000000	0.000000	0.000000	0.000000	0.000000	30.573476	718.442879	-48.650221	0.297852	0.000000	-0.087966	0.000000	0.000000	0.000000	0.000000	-23.415781	0.000000	
6.273302	0.000000	0.000000	0.000000	0.000000	0.000000	0.000000	30.108742	716.843443	-48.432513	0.296381	0.000000	-0.087960	0.000000	0.000000	0.000000	0.000000	-23.282469	0.000000	
6.274977	0.000000	0.000000	0.000000	0.000000	0.000000	0.000000	29.644615	715.278556	-48.215783	0.294925	0.000000	-0.087954	0.000000	0.000000	0.000000	0.000000	-23.151408	0.000000	
6.276642	0.000000	0.000000	0.000000	0.000000	0.000000	0.000000	29.181122	713.749312	-48.000068	0.293486	0.000000	-0.087947	0.000000	0.000000	0.000000	0.000000	-23.022701	0.000000	
6.278304	0.000000	0.000000	0.000000	0.000000	0.000000	0.000000	28.718277	712.256736	-47.785401	0.292066	0.000000	-0.087939	0.000000	0.000000	0.000000	0.000000	-22.896447	0.000000	
6.279974	0.000000	0.000000	0.000000	0.000000	0.000000	0.000000	28.256079	710.801785	-47.571811	0.290666	0.000000	-0.087931	0.000000	0.000000	0.000000	0.000000	-22.772733	0.000000	
6.281637	0.000000	0.000000	0.000000	0.000000	0.000000	0.000000	27.794514	709.385357	-47.359322	0.289288	0.000000	-0.087921	0.000000	0.000000	0.000000	0.000000	-22.651642	0.000000	
6.283308	0.000000	0.000000	0.000000	0.000000	0.000000	0.000000	27.333555	708.008292	-47.147958	0.287934	0.000000	-0.087910	0.000000	0.000000	0.000000	0.000000	-22.533250	0.000000	
6.284971	0.000000	0.000000	0.000000	0.000000	0.000000	0.000000	26.873160	706.671381	-46.937743	0.286604	0.000000	-0.087898	0.000000	0.000000	0.000000	0.000000	-22.417628	0.000000	
6.286637	0.000000	0.000000	0.000000	0.000000	0.000000	0.000000	26.413276	705.375368	-46.728700	0.285302	0.000000	-0.087884	0.000000	0.000000	0.000000	0.000000	-22.304840	0.000000	
6.288308	0.000000	0.000000	0.000000	0.000000	0.000000	0.000000	25.953836	704.120960	-46.520860	0.284026	0.000000	-0.087869	0.000000	0.000000	0.000000	0.000000	-22.194947	0.000000	
6.289969	0.000000	0.000000	0.000000	0.000000	0.000000	0.000000	25.494761	702.908830	-46.314254	0.282779	0.000000	-0.087853	0.000000	0.000000	0.000000	0.000000	-22.088007	0.000000	
6.291644	0.000000	0.000000	0.000000	0.000000	0.000000	0.000000	25.035959	701.739619	-46.108921	0.281562	0.000000	-0.087834	0.000000	0.000000	0.000000	0.000000	-21.984073	0.000000	
